HIERARCHY
ROOT Hips
{
    OFFSET 0.0 0.0 0.0
    CHANNELS 6 Xposition Yposition Zposition Zrotation Xrotation Yrotation
    JOINT LeftHipJoint
    {
        OFFSET 0.1 0.0 0.0
        CHANNELS 3 Zrotation Xrotation Yrotation
        JOINT LeftUpLeg
        {
            OFFSET 121.1840618117165 0.0 0.0
            CHANNELS 3 Zrotation Xrotation Yrotation
            JOINT LeftLeg
            {
                OFFSET 0.0 0.0 -403.94399432604695
                CHANNELS 3 Zrotation Xrotation Yrotation
                JOINT LeftFoot
                {
                    OFFSET 0.0 0.0 -391.9309216683056
                    CHANNELS 3 Zrotation Xrotation Yrotation
                    End Site
                    {
                        OFFSET 0.0 -0.1 0.0
                    }
                }
            }
        }
    }
    JOINT LowerBack
    {
        OFFSET 0.0 0.0 0.1
        CHANNELS 3 Zrotation Xrotation Yrotation
        JOINT Spine
        {
            OFFSET 0.0 0.0 219.11676909882672
            CHANNELS 3 Zrotation Xrotation Yrotation
            JOINT Spine1
            {
                OFFSET 0.0 0.0 255.38866439574144
                CHANNELS 3 Zrotation Xrotation Yrotation
                JOINT LeftShoulder
                {
                    OFFSET 0.1 0.0 0.0
                    CHANNELS 3 Zrotation Xrotation Yrotation
                    JOINT LeftArm
                    {
                        OFFSET 143.76019908005915 0.0 0.0
                        CHANNELS 3 Zrotation Xrotation Yrotation
                        JOINT LeftForeArm
                        {
                            OFFSET 257.88188655290446 0.0 0.0
                            CHANNELS 3 Zrotation Xrotation Yrotation
                            JOINT LeftHand
                            {
                                OFFSET 237.71628194369612 0.0 0.0
                                CHANNELS 3 Zrotation Xrotation Yrotation
                                End Site
                                {
                                    OFFSET 0.1 0.0 0.0
                                }
                            }
                        }
                    }
                }
                JOINT Neck
                {
                    OFFSET 0.0 0.0 0.1
                    CHANNELS 3 Zrotation Xrotation Yrotation
                    JOINT Neck1
                    {
                        OFFSET 0.0 0.0 108.80581739865049
                        CHANNELS 3 Zrotation Xrotation Yrotation
                        End Site
                        {
                            OFFSET 0.0 0.0 114.66901877192305
                        }
                    }
                }
                JOINT RightShoulder
                {
                    OFFSET -0.1 0.0 0.0
                    CHANNELS 3 Zrotation Xrotation Yrotation
                    JOINT RightArm
                    {
                        OFFSET -143.76019908005915 0.0 0.0
                        CHANNELS 3 Zrotation Xrotation Yrotation
                        JOINT RightForeArm
                        {
                            OFFSET -257.88188655290446 0.0 0.0
                            CHANNELS 3 Zrotation Xrotation Yrotation
                            JOINT RightHand
                            {
                                OFFSET -237.71628194369612 0.0 0.0
                                CHANNELS 3 Zrotation Xrotation Yrotation
                                End Site
                                {
                                    OFFSET -0.1 0.0 0.0
                                }
                            }
                        }
                    }
                }
            }
        }
    }
    JOINT RightHipJoint
    {
        OFFSET -0.1 0.0 0.0
        CHANNELS 3 Zrotation Xrotation Yrotation
        JOINT RightUpLeg
        {
            OFFSET -121.1840618117165 0.0 0.0
            CHANNELS 3 Zrotation Xrotation Yrotation
            JOINT RightLeg
            {
                OFFSET 0.0 0.0 -403.94399432604695
                CHANNELS 3 Zrotation Xrotation Yrotation
                JOINT RightFoot
                {
                    OFFSET 0.0 0.0 -391.9309216683056
                    CHANNELS 3 Zrotation Xrotation Yrotation
                    End Site
                    {
                        OFFSET 0.0 -0.1 0.0
                    }
                }
            }
        }
    }
}
MOTION
Frames: 4
Frame Time: 0.03333333333333333
0.0 0.0 799.2522320552885 29.854328842413405 -7.797651794027307 1.8684051498795715 -3.1805546814635168e-15 1.584065319869525e-15 4.3966644765734e-32 0.2865065048337776 -7.626858891089579 -1.2021877894339386 -1.4590030279528392 23.567122446487794 0.8794308623328312 0.0 0.0 0.0 -3.1805546814635168e-15 1.584065319869525e-15 4.3966644765734e-32 0.16885905070045354 -4.55765616992426 6.348206331172938 4.331824234425143 4.936015377023744e-15 -9.82388795896679e-16 0.0 0.0 0.0 -11.47266654181208 15.487951797812975 72.65584534374064 -17.063726136472336 9.47565010284027e-15 -1.2247087937218893e-14 -1.9878466759146984e-15 6.37947394640062e-32 -3.677516350442192e-15 0.0 0.0 0.0 -13.961987421831529 5.942803251184745 -9.253721215606962 0.0 0.0 0.0 68.50896913445735 -61.20229362116162 25.136169588605835 91.22986577871188 -9.091997316169668e-15 -8.89890072487807e-15 0.0 0.0 0.0 -3.1805546814635168e-15 1.584065319869525e-15 4.3966644765734e-32 -0.026323510590141447 0.6432732316839325 -2.5676090284374773 -1.7583370879630895 20.535109022496904 2.3055469343184503 0.0 0.0 3.975693351829396e-16
0.0 0.0 799.2522320552885 29.92331154448874 -7.780572103738102 1.9311590696312546 0.0 0.0 0.0 0.27718989931082433 -7.642913505158092 -1.242738372878438 -1.4710284779717526 23.963008384012888 0.9327801186877506 0.0 0.0 0.0 0.0 0.0 0.0 0.16668541120733874 -4.663588969385347 6.293484629289668 4.281939541443248 4.112153945863066e-15 -1.7451185290964191e-15 0.0 0.0 0.0 -10.82058857311179 15.468709977082137 72.56202467256497 -17.073951092570898 2.1966861164931915e-15 1.435311398166935e-15 7.951386703658792e-16 2.758691436281349e-33 3.975693351829396e-16 0.0 0.0 0.0 -13.91577324020841 5.934740318007931 -9.214703019760568 0.0 0.0 0.0 69.17673623831364 -61.57830943381685 25.836748017773353 89.99298312327505 -2.2496803505574906e-15 1.1244821180590153e-14 7.951386703658792e-16 0.0 0.0 0.0 0.0 0.0 -0.022485533217290174 0.5552955204967968 -2.577672812624266 -1.7676090595772982 20.90030386940629 2.255674819197102 0.0 0.0 0.0
0.0 0.0 799.2522320552885 29.959559396814768 -7.722077081357293 1.977234286353204 -3.1805546814635168e-15 0.0 0.0 0.2756026441861631 -7.776076319021166 -1.2630970582395853 -1.4832890849838538 24.318146810038197 0.9569506605707984 0.0 0.0 0.0 -3.1805546814635168e-15 0.0 0.0 0.16770031308708486 -4.804035110220438 6.308380129955964 4.3187129702357785 2.383722117391479e-15 -8.987999254365914e-17 -6.3611093629270335e-15 4.4139062980501586e-32 -7.951386703658792e-16 -9.777087858772822 15.300249777169174 72.3214895830269 -17.17782234304408 -1.1667396393032942e-14 4.713520023349217e-17 1.5902773407317588e-15 3.975693351829398e-16 8.547740706433203e-15 -6.3611093629270335e-15 4.4139062980501586e-32 -7.951386703658792e-16 -14.000180155616073 5.925996984863517 -9.173224782957769 -6.3611093629270335e-15 4.4139062980501586e-32 -7.951386703658792e-16 69.79695170536665 -61.97709730086673 26.634471511433702 88.66798585146647 -4.4453962342821964e-15 -4.5499631479109414e-15 0.0 0.0 0.0 -3.1805546814635168e-15 0.0 0.0 -0.01869336755949844 0.4563328047444814 -2.566563449758532 -1.7747222276487897 21.225681357333457 2.1495660308390825 0.0 0.0 3.975693351829396e-16
0.0 0.0 799.2522320552885 30.034598259864335 -7.642088387108382 2.0386371347296683 0.0 0.0 0.0 0.2740184422491489 -7.890374363686222 -1.3097144813181718 -1.5025508601138253 24.56095144526822 1.0218051318291512 0.0 0.0 3.975693351829396e-16 0.0 0.0 0.0 0.1670970433161829 -4.887827060472354 6.347989487030196 4.368872050152923 3.0307796016459105e-17 7.945608489045021e-16 0.0 0.0 0.0 -9.0352054569669 15.094106082482966 72.10043147798423 -17.209148141164363 9.926942387691315e-15 -7.142926020499581e-15 -1.5902773407317578e-15 1.2138242319637935e-31 -8.746525374024669e-15 0.0 0.0 0.0 -14.173200157987285 5.820863738394718 -9.353363170388832 0.0 0.0 0.0 70.12891107466905 -62.11335789441266 27.288591822326143 87.04663335025442 -6.918605096317032e-15 6.570864194094369e-15 -1.1927080055488188e-15 -3.1805546814635164e-15 -6.361109362927033e-15 0.0 0.0 0.0 -0.015417891380162025 0.3670255365809475 -2.5320040413437783 -1.7648363798868387 21.444823035472393 1.9813272965940718 0.0 0.0 3.975693351829396e-16
